<?xml version="1.0" encoding="UTF-8"?>
<!DOCTYPE svg PUBLIC "-//W3C//DTD SVG 1.1//EN"
  "http://www.w3.org/Graphics/SVG/1.1/DTD/svg11.dtd">
<svg width="148.966pt" height="120.08905pt" viewBox="-72 -72 148.966 120.08905" style="overflow: visible; position: absolute;"><g transform="translate(-52.06771850585936,26.787490844726555) scale(1,-1)"><g>
 <g stroke="rgb(0.0%,0.0%,0.0%)">
 <g fill="rgb(0.0%,0.0%,0.0%)">
 <g stroke-width="0.4pt">
 <g>
 <g stroke="rgb(0.0%,0.0%,0.0%)">
 <g fill="rgb(0.0%,0.0%,0.0%)">
 <path d=" M  0.0 0.0 L  0.0 85.35823 L  113.81097 0.0 Z  " style="fill:none"></path>
 <g>
 <g>
 <g transform="matrix(1.0,0.0,0.0,1.0,-14.39546,-13.36629)">
 <g stroke="rgb(0.0%,0.0%,0.0%)">
 <g fill="rgb(0.0%,0.0%,0.0%)">
 <g stroke="none" transform="scale(-1,1) translate(-52.06771850585936,26.787490844726555) scale(-1,-1)"><text alignment-baseline="baseline" y="26.787490844726555" x="-52.06771850585936" style="font-family: cmmi10; font-size: 10;">C</text>
</g></g>
 </g>
 </g>
 </g>
 </g>
 <g>
 <g>
 <g transform="matrix(1.0,0.0,0.0,1.0,-3.75,88.8912)">
 <g stroke="rgb(0.0%,0.0%,0.0%)">
 <g fill="rgb(0.0%,0.0%,0.0%)">
 <g stroke="none" transform="scale(-1,1) translate(-52.06771850585936,26.787490844726555) scale(-1,-1)"><text alignment-baseline="baseline" y="26.787490844726555" x="-52.06771850585936" style="font-family: cmmi10; font-size: 10;">A</text>
</g></g>
 </g>
 </g>
 </g>
 </g>
 <g>
 <g>
 <g transform="matrix(1.0,0.0,0.0,1.0,117.34395,-10.36629)">
 <g stroke="rgb(0.0%,0.0%,0.0%)">
 <g fill="rgb(0.0%,0.0%,0.0%)">
 <g stroke="none" transform="scale(-1,1) translate(-52.06771850585936,26.787490844726555) scale(-1,-1)"><text alignment-baseline="baseline" y="26.787490844726555" x="-52.06771850585936" style="font-family: cmmi10; font-size: 10;">B</text>
</g></g>
 </g>
 </g>
 </g>
 </g>
 <g>
 <g>
 <g transform="matrix(1.0,0.0,0.0,1.0,-16.86931,40.52634)">
 <g stroke="rgb(0.0%,0.0%,0.0%)">
 <g fill="rgb(0.0%,0.0%,0.0%)">
 <g stroke="none" transform="scale(-1,1) translate(-52.06771850585936,26.787490844726555) scale(-1,-1)"><text alignment-baseline="baseline" y="26.787490844726555" x="-52.06771850585936" style="font-family: cmmi10; font-size: 10;">a</text>
</g></g>
 </g>
 </g>
 </g>
 </g>
 <g>
 <g>
 <g transform="matrix(1.0,0.0,0.0,1.0,54.75966,-17.69858)">
 <g stroke="rgb(0.0%,0.0%,0.0%)">
 <g fill="rgb(0.0%,0.0%,0.0%)">
 <g stroke="none" transform="scale(-1,1) translate(-52.06771850585936,26.787490844726555) scale(-1,-1)"><text alignment-baseline="baseline" y="26.787490844726555" x="-52.06771850585936" style="font-family: cmmi10; font-size: 10;">b</text>
</g></g>
 </g>
 </g>
 </g>
 </g>
 <g>
 <g>
 <g transform="matrix(1.0,0.0,0.0,1.0,63.27762,49.06224)">
 <g stroke="rgb(0.0%,0.0%,0.0%)">
 <g fill="rgb(0.0%,0.0%,0.0%)">
 <g stroke="none" transform="scale(-1,1) translate(-52.06771850585936,26.787490844726555) scale(-1,-1)"><text alignment-baseline="baseline" y="26.787490844726555" x="-52.06771850585936" style="font-family: cmmi10; font-size: 10;">c</text>
</g></g>
 </g>
 </g>
 </g>
 </g>
 </g>
 </g>
 </g>
 </g>
 </g>
 </g>
 </g>
 </g></svg>
