<svg version="1.1" viewBox="0.0 0.0 576.0 576.0" fill="none" stroke="none" stroke-linecap="square" stroke-miterlimit="10" xmlns:xlink="http://www.w3.org/1999/xlink" xmlns="http://www.w3.org/2000/svg"><clipPath id="p.0"><path d="m0 0l576.0 0l0 576.0l-576.0 0l0 -576.0z" clip-rule="nonzero"/></clipPath><g clip-path="url(#p.0)"><path fill="#000000" fill-opacity="0.0" d="m0 0l576.0 0l0 576.0l-576.0 0z" fill-rule="evenodd"/><path fill="#1e7b34" d="m0 0l576.0 0l0 576.0l-576.0 0z" fill-rule="evenodd"/><defs><linearGradient id="p.1" gradientUnits="userSpaceOnUse" gradientTransform="matrix(18.961649125315297 0.0 0.0 18.961649125315297 0.0 0.0)" spreadMethod="pad" x1="3.7989375427655663" y1="5.707666938137086" x2="3.7988688734570726" y2="24.66931606332804"><stop offset="0.0" stop-color="#d6f5dd"/><stop offset="1.0" stop-color="#32cd56"/></linearGradient></defs><path fill="url(#p.1)" d="m72.03412 236.88638l71.5414 -95.03949l282.99847 -6.9553833l77.39258 -26.663162l-51.841125 88.42207l-71.470825 7.612213l7.579956 175.08624l28.1568 7.947418l58.473938 -29.696594l-62.80533 96.03427l-78.5813 -52.53595l-2.637909 -190.31064l-61.722473 -2.1749268l-18.408447 193.57303l-113.70201 65.58545l1.9458771 -57.00299l57.6136 -55.007935l15.157196 -147.14755l-69.30243 2.1749268z" fill-rule="evenodd"/></g></svg>